HIERARCHY
ROOT Hips
{
	OFFSET -0.001795 -0.223333 0.028219
	CHANNELS 6 Xposition Yposition Zposition Zrotation Yrotation Xrotation 
	JOINT LeftUpLeg
	{
		OFFSET 0.069520 -0.091406 -0.006815
		CHANNELS 3 Zrotation Yrotation Xrotation
		JOINT LeftLeg
		{
			OFFSET 0.034277 -0.375199 -0.004496
			CHANNELS 3 Zrotation Yrotation Xrotation
			JOINT LeftFoot
			{
				OFFSET -0.013596 -0.397961 -0.043693
				CHANNELS 3 Zrotation Yrotation Xrotation
				JOINT LeftToe
				{
					OFFSET 0.026358 -0.055791 0.119288
					CHANNELS 3 Zrotation Yrotation Xrotation
					End Site
					{
						OFFSET 0.000000 0.000000 0.000000
					}
				}
			}
		}
	}
	JOINT RightUpLeg
	{
		OFFSET -0.067670 -0.090522 -0.004320
		CHANNELS 3 Zrotation Yrotation Xrotation
		JOINT RightLeg
		{
			OFFSET -0.038290 -0.382569 -0.008850
			CHANNELS 3 Zrotation Yrotation Xrotation
			JOINT RightFoot
			{
				OFFSET 0.015774 -0.398415 -0.042312
				CHANNELS 3 Zrotation Yrotation Xrotation
				JOINT RightToe
				{
					OFFSET -0.025372 -0.048144 0.123348
					CHANNELS 3 Zrotation Yrotation Xrotation
					End Site
					{
						OFFSET 0.000000 0.000000 0.000000
					}
				}
			}
		}
	}
	JOINT Spine
	{
		OFFSET -0.002533 0.108963 -0.026696
		CHANNELS 3 Zrotation Yrotation Xrotation
		JOINT Spine1
		{
			OFFSET 0.005487 0.135180 0.001092
			CHANNELS 3 Zrotation Yrotation Xrotation
			JOINT Spine2
			{
				OFFSET 0.001457 0.052922 0.025425
				CHANNELS 3 Zrotation Yrotation Xrotation
				JOINT Neck
				{
					OFFSET -0.002778 0.213870 -0.042857
					CHANNELS 3 Zrotation Yrotation Xrotation
					JOINT Head
					{
						OFFSET 0.005152 0.064970 0.051349
						CHANNELS 3 Zrotation Yrotation Xrotation
						End Site
						{
							OFFSET 0.000000 0.000000 0.000000
						}
					}
				}
				JOINT LeftShoulder
				{
					OFFSET 0.078845 0.121749 -0.034090
					CHANNELS 3 Zrotation Yrotation Xrotation
					JOINT LeftArm
					{
						OFFSET 0.090977 0.030469 -0.008868
						CHANNELS 3 Zrotation Yrotation Xrotation
						JOINT LeftForeArm
						{
							OFFSET 0.259612 -0.012772 -0.027456
							CHANNELS 3 Zrotation Yrotation Xrotation
							JOINT LeftHand
							{
								OFFSET 0.249234 0.008986 -0.001171
								CHANNELS 3 Zrotation Yrotation Xrotation
								End Site
								{
									OFFSET 0.000000 0.000000 0.000000
								}
							}
						}
					}
				}
				JOINT RightShoulder
				{
					OFFSET -0.081759 0.118833 -0.038615
					CHANNELS 3 Zrotation Yrotation Xrotation
					JOINT RightArm
					{
						OFFSET -0.096012 0.032551 -0.009143
						CHANNELS 3 Zrotation Yrotation Xrotation
						JOINT RightForeArm
						{
							OFFSET -0.253742 -0.013329 -0.021401
							CHANNELS 3 Zrotation Yrotation Xrotation
							JOINT RightHand
							{
								OFFSET -0.255298 0.007772 -0.005559
								CHANNELS 3 Zrotation Yrotation Xrotation
								End Site
								{
									OFFSET 0.000000 0.000000 0.000000
								}
							}
						}
					}
				}
			}
		}
	}
}
MOTION
Frames: 13
Frame Time: 0.050000
-0.045904 0.920045 -0.170083 -3.770002 -72.081805 4.537723 6.118901 1.721238 -6.251349 -6.206546 5.445030 13.031534 11.357349 24.827652 2.934450 0.000000 0.000000 0.000000 -1.215893 2.663491 -18.204028 5.019945 5.308137 27.446664 -5.243816 -8.926162 1.167159 0.000000 0.000000 0.000000 12.406688 -0.055869 9.237665 1.649536 4.291523 11.829176 -9.205895 -0.313840 9.564716 14.114446 -10.495170 -1.723352 0.000000 0.000000 0.000000 -1.886577 -43.082916 20.856614 6.156127 -47.559654 -2.909184 69.425056 -4.957950 -0.818205 0.000000 0.000000 0.000000 -3.590012 38.072761 9.170597 -12.574024 38.680372 -9.752545 -44.364002 14.266095 -7.894553 0.000000 0.000000 0.000000 
-0.048206 0.919530 -0.169725 -3.854331 -71.771618 4.632648 6.163055 1.719618 -6.260123 -6.134492 5.477976 13.290466 10.754049 24.232327 2.027154 0.000000 0.000000 0.000000 -1.103726 2.622725 -18.059729 5.139773 5.403395 27.833598 -5.798157 -9.675629 0.916340 0.000000 0.000000 0.000000 12.264928 -0.061951 8.577911 1.701024 4.375394 12.127588 -9.559289 0.045616 9.399879 14.774553 -10.967593 -2.062975 0.000000 0.000000 0.000000 -2.132643 -43.265756 20.992797 5.708886 -47.324714 -2.803370 69.606503 -5.205767 -0.997451 0.000000 0.000000 0.000000 -4.125302 38.009555 9.271552 -12.765248 38.370345 -9.687469 -44.434898 13.379847 -7.503969 0.000000 0.000000 0.000000 
-0.049983 0.919085 -0.168497 -3.993377 -71.603465 4.775555 6.080596 1.690016 -6.351681 -6.085085 5.578122 13.667314 10.506488 23.975091 1.642748 0.000000 0.000000 0.000000 -1.177509 2.656117 -18.192206 5.728305 5.618010 28.791229 -6.400213 -10.641768 0.717105 0.000000 0.000000 0.000000 12.201324 -0.056225 8.138257 1.289559 4.244091 11.380286 -9.642881 1.114966 9.882539 15.045668 -11.267533 -2.277685 0.000000 0.000000 0.000000 -2.658236 -43.438290 21.256677 5.317849 -47.467262 -2.777891 69.279365 -6.210467 -1.727811 0.000000 0.000000 0.000000 -4.324418 37.780027 9.258979 -13.096922 38.044142 -9.659848 -43.656533 13.147707 -7.177716 0.000000 0.000000 0.000000 
-0.050988 0.918600 -0.166352 -3.652706 -71.280068 4.329976 5.949921 1.632013 -6.402805 -6.294768 5.771228 13.988600 10.209806 23.594035 1.260179 0.000000 0.000000 0.000000 -1.377995 2.613152 -18.052262 5.714861 5.728402 29.213821 -6.541371 -10.968943 0.753193 0.000000 0.000000 0.000000 11.904407 -0.074666 7.812042 1.460928 4.244674 11.701058 -10.101474 1.652859 9.350730 15.553818 -11.661141 -2.229846 0.000000 0.000000 0.000000 -3.304386 -43.508185 21.506796 4.543845 -47.738590 -2.656559 69.240581 -7.594844 -2.670607 0.000000 0.000000 0.000000 -4.119426 37.762005 9.350831 -13.375801 37.709958 -9.467037 -42.289222 13.078562 -6.670474 0.000000 0.000000 0.000000 
-0.051327 0.918254 -0.163394 -2.901954 -70.538646 3.704326 5.645397 1.516444 -6.713235 -6.247378 5.782125 14.298209 9.828904 22.956087 0.882486 0.000000 0.000000 0.000000 -1.840431 2.621751 -18.106575 6.062956 5.768486 29.740371 -7.069404 -11.973928 0.705338 0.000000 0.000000 0.000000 11.850256 -0.074388 7.446004 1.389226 4.083715 11.464834 -10.427065 2.608083 9.401022 16.082296 -12.126218 -2.425053 0.000000 0.000000 0.000000 -3.262913 -43.966062 21.460131 4.096619 -48.582254 -2.615072 68.827767 -8.740910 -3.474132 0.000000 0.000000 0.000000 -3.959056 37.427481 9.357593 -13.648994 37.061697 -9.159689 -41.196817 13.369550 -6.408703 0.000000 0.000000 0.000000 
-0.051070 0.917943 -0.159929 -2.115521 -69.578291 2.966242 5.240542 1.366214 -7.004596 -6.308306 5.830320 14.609554 9.432814 22.080185 0.721682 0.000000 0.000000 0.000000 -2.408991 2.557528 -17.860281 6.155946 5.586151 29.550878 -7.260166 -12.496098 0.847474 0.000000 0.000000 0.000000 11.532159 -0.094547 7.005423 1.771785 3.933102 11.842821 -10.678736 3.020156 8.975943 16.234622 -12.271331 -2.687786 0.000000 0.000000 0.000000 -4.409153 -44.308282 22.101512 3.540249 -49.012039 -2.627050 69.219793 -10.652630 -4.832446 0.000000 0.000000 0.000000 -3.276447 37.556556 9.516751 -13.626210 36.325025 -8.656262 -40.002326 13.783158 -6.126680 0.000000 0.000000 0.000000 
-0.050666 0.917662 -0.156361 -1.464263 -68.723267 2.410677 4.790343 1.220883 -7.412630 -6.355979 5.939110 15.076012 9.009862 21.441765 0.177325 0.000000 0.000000 0.000000 -2.898647 2.556551 -17.848937 6.578913 5.517950 29.832614 -7.802500 -13.713766 1.052338 0.000000 0.000000 0.000000 11.207613 -0.118709 6.770203 1.554250 3.826344 11.553156 -10.487497 3.840316 9.168108 16.707910 -12.657984 -2.929905 0.000000 0.000000 0.000000 -4.920475 -44.705601 22.404129 2.898430 -49.994714 -2.557763 69.144892 -12.671557 -6.206714 0.000000 0.000000 0.000000 -2.672664 37.308775 9.554161 -13.711531 35.601961 -8.284119 -39.273388 14.225929 -6.020878 0.000000 0.000000 0.000000 
-0.050311 0.917686 -0.152894 -1.036827 -67.817453 1.959012 4.293284 1.047493 -7.520574 -6.265787 5.844554 15.192676 8.596679 20.511940 0.086417 0.000000 0.000000 0.000000 -3.286377 2.432682 -17.309690 6.735188 5.293115 29.502910 -8.040296 -14.359288 1.354354 0.000000 0.000000 0.000000 10.863349 -0.129158 6.291970 1.903004 3.778868 12.151123 -10.560041 4.032738 8.869049 16.706241 -12.690624 -2.946467 0.000000 0.000000 0.000000 -5.810417 -44.748540 22.784135 1.604506 -50.385735 -2.245232 69.770426 -15.456158 -8.088255 0.000000 0.000000 0.000000 -2.257261 37.407598 9.716249 -13.317477 34.841023 -7.736225 -38.890795 14.077325 -5.793974 0.000000 0.000000 0.000000 
-0.050210 0.917856 -0.149811 -0.911137 -67.120367 1.822062 4.029576 0.944118 -7.456926 -6.162659 5.756902 15.282129 8.015739 19.844609 -0.803103 0.000000 0.000000 0.000000 -3.498399 2.405150 -17.186872 6.997309 5.166547 29.457616 -8.520922 -15.413392 1.616387 0.000000 0.000000 0.000000 10.662507 -0.145705 6.197329 1.817917 3.712244 12.082265 -10.323410 4.632379 8.995175 17.042935 -12.982200 -2.879158 0.000000 0.000000 0.000000 -6.841871 -45.081439 23.385048 0.074862 -50.726509 -1.844583 70.626206 -18.830409 -10.475913 0.000000 0.000000 0.000000 -1.271253 37.340259 9.802470 -12.741259 34.310022 -7.223446 -39.236728 13.965383 -5.733988 0.000000 0.000000 0.000000 
-0.050234 0.917875 -0.147144 -0.849809 -66.601621 1.638324 3.860033 0.875451 -7.327022 -6.178604 5.714765 15.266566 7.937599 19.656639 -0.806076 0.000000 0.000000 0.000000 -3.721684 2.314376 -16.748719 7.064515 4.984836 29.067931 -8.596423 -15.731336 1.934187 0.000000 0.000000 0.000000 10.384365 -0.165085 6.137751 2.148144 3.608139 12.405788 -10.193557 4.658740 8.719237 17.166916 -13.066056 -2.838408 0.000000 0.000000 0.000000 -8.248879 -45.026295 24.107764 -1.225324 -50.025727 -1.517401 71.743876 -22.348278 -13.068146 0.000000 0.000000 0.000000 -0.288917 37.842357 10.046930 -12.536511 33.549613 -6.813371 -39.507530 13.996838 -5.700004 0.000000 0.000000 0.000000 
-0.050199 0.917660 -0.144866 -0.985829 -66.594722 1.488220 3.889962 0.868613 -6.933815 -6.194450 5.698669 15.192625 7.643877 19.460655 -1.367760 0.000000 0.000000 0.000000 -3.862034 2.269905 -16.511002 7.428127 4.909681 29.041104 -8.925260 -16.446132 2.274265 0.000000 0.000000 0.000000 10.321701 -0.164032 6.155195 2.256618 3.708730 12.846065 -9.924774 4.349503 8.483817 17.164505 -13.030444 -2.691987 0.000000 0.000000 0.000000 -8.882095 -45.061480 24.525664 -2.061928 -49.435537 -1.264448 72.631239 -24.706419 -14.894017 0.000000 0.000000 0.000000 0.246909 38.262788 10.198243 -12.641968 33.279252 -6.719167 -39.918016 13.220517 -5.457321 0.000000 0.000000 0.000000 
-0.050004 0.917535 -0.142926 -1.207772 -66.569551 1.660429 3.787199 0.834075 -6.713977 -6.144879 5.696200 15.233959 7.641314 19.683660 -1.597543 0.000000 0.000000 0.000000 -3.956193 2.217720 -16.222391 7.502990 4.810548 28.757897 -9.074137 -16.760023 2.523920 0.000000 0.000000 0.000000 10.290862 -0.165520 6.139324 2.214923 3.655913 12.656039 -9.477867 4.183732 8.719996 16.600186 -12.606117 -2.940330 0.000000 0.000000 0.000000 -9.045263 -45.395179 24.876498 -2.225777 -48.481910 -1.201786 73.494530 -25.877149 -15.948423 0.000000 0.000000 0.000000 0.583223 38.822343 10.340434 -12.764550 32.496107 -6.555898 -40.682411 12.987097 -5.522036 0.000000 0.000000 0.000000 
-0.049843 0.917410 -0.141267 -1.497700 -67.060526 1.663365 3.907029 0.872670 -6.367038 -6.333196 5.851860 15.239667 7.696303 20.028717 -1.747725 0.000000 0.000000 0.000000 -3.964184 2.199821 -16.103912 7.668148 4.848096 28.827636 -8.855586 -16.321653 2.485169 0.000000 0.000000 0.000000 10.372151 -0.152613 6.152035 2.420789 3.793112 13.134441 -9.499563 3.685177 8.440083 16.594941 -12.526694 -3.082920 0.000000 0.000000 0.000000 -8.876687 -45.316773 24.838354 -2.600139 -47.705364 -1.035328 74.199788 -25.888115 -16.086955 0.000000 0.000000 0.000000 1.199891 38.936482 10.341309 -13.016527 32.483167 -6.633103 -41.776482 12.889885 -5.679991 0.000000 0.000000 0.000000 
